<svg xmlns="http://www.w3.org/2000/svg" xmlns:xlink="http://www.w3.org/1999/xlink" width="51.134" height="51.134" viewBox="0 0 51.134 51.134"><defs><filter id="a" x="0" y="4.194" width="46.94" height="46.94" filterUnits="userSpaceOnUse"><feOffset dx="-5" dy="5" input="SourceAlpha"/><feGaussianBlur result="b"/><feFlood flood-color="#d53678" flood-opacity="0.2"/><feComposite operator="in" in2="b"/><feComposite in="SourceGraphic"/></filter></defs><g transform="translate(0.806)"><path d="M0,0H50.328V50.328H0Z" fill="none"/><g transform="matrix(1, 0, 0, 1, -0.81, 0)" filter="url(#a)"><path d="M39.746,2H6.194A4.188,4.188,0,0,0,2.021,6.194L2,43.94l8.388-8.388H39.746a4.206,4.206,0,0,0,4.194-4.194V6.194A4.206,4.206,0,0,0,39.746,2ZM25.067,27.164H20.873V22.97h4.194Zm0-8.388H20.873V10.388h4.194Z" transform="translate(3 2.19)" fill="#d53678"/></g></g></svg>