<svg xmlns="http://www.w3.org/2000/svg" width="253.599" height="45.211" viewBox="0 0 253.599 45.211"><g transform="translate(0)"><path d="M326.108,203.223H315.6l-17.973-35.751H308.46l12.457,26.213,12.458-26.213h10.641Z" transform="translate(-297.624 -159.439)" fill="#fff"/><path d="M485.431,202.521V166.771h10.057v7.4c2.92-5.386,9.083-8.175,15.961-8.175v8.63c-7.786,0-13.82,3.049-15.961,9.343v18.557Z" transform="translate(-387.246 -158.737)" fill="#fff"/><path d="M576.659,193.42a22.014,22.014,0,0,1-11.744,3.418c-7.527,0-13.366-4.063-13.366-12.061V167.429h-6.618v-7.482h6.618v-8.255h10.056v8.255h14.729v7.482H561.606v15.608c0,3.612,2.725,5.483,6.294,5.483a15.416,15.416,0,0,0,6.683-1.871Z" transform="translate(-415.662 -151.692)" fill="#fff"/><path d="M636.238,195.709c6.164,0,10.057-1.622,13.755-4.607l5.385,5.9c-5,4.412-11.42,6.358-19.66,6.358-14.728,0-23.228-7.4-23.228-19.27,0-11.938,8.435-19.335,22.514-19.335,12.977,0,21.671,6.618,21.671,19.27a6.961,6.961,0,0,1-.26,2.336H622.158C623.067,192.789,627.933,195.709,636.238,195.709Zm-13.626-15.767,24.461-.13c-1.557-5.126-5.645-7.4-12-7.4C628.517,172.416,624.04,174.882,622.613,179.943Z" transform="translate(-447.975 -158.154)" fill="#fff"/><path d="M726.806,184.99,742.9,203.223H731.283L720.772,190.96l-10.641,12.263h-11.1l16.091-18.038L699.3,167.472h11.549l10.316,11.938,10.316-11.938h11.095Z" transform="translate(-489.298 -159.439)" fill="#fff"/><path d="M421.355,165.861H408a15.2,15.2,0,0,0-15.195,15.195v6.34A15.2,15.2,0,0,0,408,202.59h13.352A15.2,15.2,0,0,0,436.55,187.4v-6.34A15.2,15.2,0,0,0,421.355,165.861Zm4.677,19.7H417.82l5.7,5.915-1.924,1.853-5.577-5.791v8.04h-2.671v-8.04l-5.577,5.791-1.924-1.853,5.7-5.915h-8.212V182.89h8.212l-5.7-5.916,1.924-1.853,5.577,5.791v-8.04h2.671v8.04l5.577-5.791,1.924,1.853-5.7,5.916h8.212Z" transform="translate(-343.075 -158.675)" fill="#00d78c"/></g></svg>