<svg xmlns="http://www.w3.org/2000/svg" width="239.651" height="249.661" viewBox="0 0 239.651 249.661"><path d="M1010.552-27.19c-27.329,1.926-52.929,19.906-64.016,44.959-8.782,19.846-6.96,46.5,10.631,59.2,10.51,7.592,24.373,8.756,37.289,7.629a125.894,125.894,0,0,0,66.371-26.228c10.541-8.278,20.41-20.09,19.084-33.428-1.372-13.806-15.1-24.01-28.93-25.174s-27.312,4.838-38.865,12.522a133.551,133.551,0,0,0-33.657,32.155c-7.554,10.305-13.7,21.957-15.661,34.584s.681,26.337,8.973,36.06c10.259,12.029,27.25,16.137,43.057,15.858a103.36,103.36,0,0,0,70.436-29.9c15.528-15.524,25.615-41.2,12.943-59.126-10.462-14.8-32.781-17.238-49.119-9.385s-27.542,23.5-35.8,39.636c-6.513,12.731-11.713,26.462-12.268,40.751s4.058,29.264,14.636,38.887c15.484,14.087,38.87,13.661,59.766,12.411" transform="translate(-792.203 592.6) rotate(-31)" fill="none" stroke="#00d78c" stroke-miterlimit="10" stroke-width="1"/></svg>