<svg xmlns="http://www.w3.org/2000/svg" width="133.41" height="133.546" viewBox="0 0 133.41 133.546"><path d="M773.022,580.558l-5.673-5.8L810.5,533.571l-.125-.413-59.783,1.385v-8.064l59.748,1.4.172-.407L767.361,486.29l5.764-5.707L814.3,523.74l.384-.188c-.47-19.9-.939-39.8-1.411-59.809h8.067q-.693,29.905-1.387,59.8l.35.224,41.252-43.241,5.742,5.731-43.169,41.2.14.42,59.735-1.4v8.067l-59.689-1.389-.194.406q21.609,20.625,43.175,41.212l-5.737,5.734Q841,558.968,820.313,537.281l-.364.214c.462,19.9.925,39.79,1.39,59.794h-8.067q.707-29.953,1.408-59.757l-.375-.245Z" transform="translate(-750.59 -463.743)" fill="#00d78c"/></svg>