<svg xmlns="http://www.w3.org/2000/svg" width="384.773" height="333.62" viewBox="0 0 384.773 333.62"><path d="M264.114,506.463c23.759-36.093,25.747-85.393,4.969-123.281-16.458-30.012-51.6-53.252-84.372-43.379-19.581,5.9-34.315,22.157-45.274,39.421a198.567,198.567,0,0,0-30.7,108.293c.278,21.138,5.629,44.819,23.612,55.931,18.616,11.5,44.555,4.067,59.254-12.144s20.1-38.86,21.531-60.7a210.631,210.631,0,0,0-8.06-72.974c-5.679-19.337-14.394-38.2-28.34-52.748s-33.657-24.371-53.782-23.291c-24.9,1.336-46.321,18.693-61.11,38.77a163.008,163.008,0,0,0-29.987,116.9c4.583,34.327,27.091,71.553,61.7,72.846,28.57,1.068,53-24.57,58.8-52.564s-3.07-57.019-15.386-82.821c-9.715-20.355-21.943-40.023-39.318-54.4s-40.558-22.941-62.748-18.9c-32.483,5.913-54.347,35.626-72.793,63.01" transform="translate(241.789 -283.289) rotate(22)" fill="none" stroke="#ffc200" stroke-miterlimit="10" stroke-width="1"/></svg>