<svg xmlns="http://www.w3.org/2000/svg" width="32.264" height="32.264" viewBox="0 0 32.264 32.264"><path d="M16.132,0C11.754,0,11.2.02,9.484.1a11.887,11.887,0,0,0-3.918.75A7.9,7.9,0,0,0,2.708,2.708,7.919,7.919,0,0,0,.847,5.566,11.817,11.817,0,0,0,.1,9.478C.02,11.2,0,11.75,0,16.134s.02,4.928.1,6.648A11.884,11.884,0,0,0,.847,26.7a8.259,8.259,0,0,0,4.717,4.719,11.844,11.844,0,0,0,3.916.75c1.722.077,2.271.1,6.653.1s4.928-.02,6.651-.1a11.909,11.909,0,0,0,3.918-.75A8.259,8.259,0,0,0,31.418,26.7a11.937,11.937,0,0,0,.75-3.916c.077-1.72.1-2.269.1-6.651s-.02-4.93-.1-6.653a11.923,11.923,0,0,0-.75-3.914,7.917,7.917,0,0,0-1.861-2.857A7.887,7.887,0,0,0,26.7.847,11.868,11.868,0,0,0,22.781.1C21.059.02,20.512,0,16.128,0h.006ZM14.686,2.908h1.448c4.307,0,4.817.014,6.517.093a8.94,8.94,0,0,1,3,.555A5.005,5.005,0,0,1,27.5,4.763a4.984,4.984,0,0,1,1.206,1.855,8.861,8.861,0,0,1,.555,2.995c.079,1.7.095,2.21.095,6.515s-.016,4.817-.095,6.517a8.925,8.925,0,0,1-.555,2.995A5.347,5.347,0,0,1,25.646,28.7a8.875,8.875,0,0,1-2.995.557c-1.7.077-2.21.095-6.517.095s-4.82-.018-6.519-.095A8.911,8.911,0,0,1,6.62,28.7a5,5,0,0,1-1.855-1.206,5,5,0,0,1-1.21-1.855A8.913,8.913,0,0,1,3,22.644c-.077-1.7-.093-2.21-.093-6.519S2.924,11.309,3,9.609a8.926,8.926,0,0,1,.557-3A5.005,5.005,0,0,1,4.765,4.757,4.984,4.984,0,0,1,6.62,3.551a8.911,8.911,0,0,1,2.995-.557c1.488-.069,2.065-.089,5.072-.091v0ZM24.745,5.586a1.936,1.936,0,1,0,1.936,1.936,1.936,1.936,0,0,0-1.936-1.936ZM16.134,7.848a8.285,8.285,0,1,0,8.286,8.285,8.284,8.284,0,0,0-8.286-8.285Zm0,2.906a5.378,5.378,0,1,1-5.378,5.378A5.378,5.378,0,0,1,16.134,10.754Z" fill="currentColor"/></svg>