<svg xmlns="http://www.w3.org/2000/svg" width="39.708" height="32.264" viewBox="0 0 39.708 32.264"><path d="M12.473,34.264c14.985,0,23.182-12.416,23.182-23.164,0-.347,0-.7-.015-1.047a16.59,16.59,0,0,0,4.068-4.224A16.523,16.523,0,0,1,35.02,7.114,8.192,8.192,0,0,0,38.611,2.6a16.213,16.213,0,0,1-5.179,1.968A8.155,8.155,0,0,0,19.544,12,23.142,23.142,0,0,1,2.75,3.493,8.162,8.162,0,0,0,5.276,14.368a8.247,8.247,0,0,1-3.688-1.013v.112A8.16,8.16,0,0,0,8.12,21.453a7.949,7.949,0,0,1-2.147.285A8.016,8.016,0,0,1,4.45,21.6a8.148,8.148,0,0,0,7.611,5.651A16.35,16.35,0,0,1,1.936,30.74,15.684,15.684,0,0,1,0,30.628a23.189,23.189,0,0,0,12.473,3.636Z" transform="translate(0 -1.999)" fill="currentColor"/></svg>